<?xml version="1.0" encoding="UTF-8"?>
<svg xmlns="http://www.w3.org/2000/svg" width="512" height="512" fill="none">
  <path d="M288.014 185.292a153.415 153.415 0 0 1 51.647 21.23l-53.416 63.465h-.02c-28.937-13.259-64.286-6.249-85.75 19.246-21.461 25.476-22.245 61.404-4.118 87.499l-53.436 63.467c-52.228-55.977-55.626-143.275-5.063-203.338L317.012 24.094l62.619 52.37-91.617 108.828Z" fill="#13BBB2"></path>
  <path d="M374.153 434.473c-50.582 60.062-137.415 71.899-201.803 30.343l53.434-63.468c28.939 13.257 64.308 6.268 85.75-19.226 21.463-25.495 22.245-61.423 4.12-87.52l53.434-63.467c52.23 55.977 55.646 143.275 5.065 203.338Z" fill="#192232"></path>
</svg>
